<?xml version="1.0" standalone="no"?>
<!DOCTYPE svg PUBLIC "-//W3C//DTD SVG 20010904//EN"
 "http://www.w3.org/TR/2001/REC-SVG-20010904/DTD/svg10.dtd">
<svg version="1.0" xmlns="http://www.w3.org/2000/svg"
 width="252.000000pt" height="252.000000pt" viewBox="0 0 252.000000 252.000000"
 preserveAspectRatio="xMidYMid meet">
<metadata>
Created by potrace 1.14, written by Peter Selinger 2001-2017
</metadata>
<g transform="translate(0.000000,252.000000) scale(0.100000,-0.100000)"
fill="#000000" stroke="none">
<path d="M1085 2506 c-44 -7 -87 -15 -95 -18 -8 -3 -37 -11 -65 -18 -93 -22
-245 -89 -322 -141 -23 -16 -45 -29 -48 -29 -25 0 -237 -199 -293 -274 -72
-97 -158 -258 -194 -366 -85 -251 -84 -571 3 -815 27 -76 112 -247 147 -294
96 -130 263 -297 337 -337 11 -6 40 -23 65 -37 82 -48 219 -112 260 -120 14
-3 43 -11 65 -17 72 -20 238 -39 335 -39 127 -1 299 29 402 70 152 59 317 157
421 249 52 47 177 191 177 204 0 3 10 17 22 32 40 45 116 199 153 307 101 301
81 655 -54 927 -50 101 -102 190 -111 190 -5 0 -12 10 -16 23 -9 29 -172 196
-248 254 -121 92 -288 176 -426 213 -25 6 -61 16 -80 21 -48 12 -229 29 -299
28 -31 -1 -92 -7 -136 -13z"/>
</g>
</svg>
