<svg width="32" height="32" viewBox="0 0 32 32" fill="none" xmlns="http://www.w3.org/2000/svg">
<rect width="32" height="32" rx="16" fill="#CB7849"/>
<g clip-path="url(#clip0_41_245)">
<path d="M16 11.0814C17.603 11.0814 17.7912 11.0885 18.4248 11.1171C19.0107 11.1433 19.3275 11.241 19.5395 11.3243C19.8206 11.4339 20.0207 11.5625 20.2303 11.7721C20.4399 11.9817 20.5709 12.1818 20.6781 12.4629C20.759 12.6749 20.8591 12.9917 20.8853 13.5776C20.9139 14.2112 20.921 14.3994 20.921 16.0024C20.921 17.6054 20.9139 17.7936 20.8853 18.4272C20.8591 19.0131 20.7614 19.3299 20.6781 19.5419C20.5685 19.8229 20.4399 20.023 20.2303 20.2326C20.0207 20.4422 19.8206 20.5732 19.5395 20.6804C19.3275 20.7614 19.0107 20.8615 18.4248 20.8877C17.7912 20.9162 17.603 20.9234 16 20.9234C14.397 20.9234 14.2088 20.9162 13.5752 20.8877C12.9893 20.8615 12.6725 20.7638 12.4605 20.6804C12.1794 20.5709 11.9794 20.4422 11.7698 20.2326C11.5601 20.023 11.4291 19.8229 11.322 19.5419C11.241 19.3299 11.1409 19.0131 11.1147 18.4272C11.0861 17.7936 11.079 17.6054 11.079 16.0024C11.079 14.3994 11.0861 14.2112 11.1147 13.5776C11.1409 12.9917 11.2386 12.6749 11.322 12.4629C11.4315 12.1818 11.5601 11.9817 11.7698 11.7721C11.9794 11.5625 12.1794 11.4315 12.4605 11.3243C12.6725 11.2434 12.9893 11.1433 13.5752 11.1171C14.2088 11.0861 14.3994 11.0814 16 11.0814ZM16 10C14.3708 10 14.1659 10.0071 13.5252 10.0357C12.8869 10.0643 12.451 10.1667 12.0699 10.3144C11.6745 10.4669 11.341 10.6741 11.0075 11.0075C10.6741 11.341 10.4692 11.6769 10.3144 12.0699C10.1667 12.451 10.0643 12.8869 10.0357 13.5276C10.0071 14.1659 10 14.3708 10 16C10 17.6292 10.0071 17.8341 10.0357 18.4748C10.0643 19.1131 10.1667 19.549 10.3144 19.9325C10.4669 20.3279 10.6741 20.6614 11.0075 20.9948C11.341 21.3283 11.6769 21.5331 12.0699 21.688C12.451 21.8356 12.8869 21.9381 13.5276 21.9667C14.1683 21.9952 14.3708 22.0024 16.0024 22.0024C17.634 22.0024 17.8364 21.9952 18.4772 21.9667C19.1155 21.9381 19.5514 21.8356 19.9349 21.688C20.3303 21.5355 20.6638 21.3283 20.9972 20.9948C21.3307 20.6614 21.5355 20.3255 21.6904 19.9325C21.838 19.5514 21.9405 19.1155 21.969 18.4748C21.9976 17.8341 22.0048 17.6316 22.0048 16C22.0048 14.3684 21.9976 14.1659 21.969 13.5252C21.9405 12.8869 21.838 12.451 21.6904 12.0675C21.5379 11.6721 21.3307 11.3386 20.9972 11.0052C20.6638 10.6717 20.3279 10.4669 19.9349 10.312C19.5538 10.1644 19.1179 10.0619 18.4772 10.0333C17.8341 10.0071 17.6292 10 16 10Z" fill="white"/>
<path d="M16 11.0814C17.603 11.0814 17.7912 11.0885 18.4248 11.1171C19.0107 11.1433 19.3275 11.241 19.5395 11.3243C19.8206 11.4339 20.0207 11.5625 20.2303 11.7721C20.4399 11.9817 20.5709 12.1818 20.6781 12.4629C20.759 12.6749 20.8591 12.9917 20.8853 13.5776C20.9139 14.2112 20.921 14.3994 20.921 16.0024C20.921 17.6054 20.9139 17.7936 20.8853 18.4272C20.8591 19.0131 20.7614 19.3299 20.6781 19.5419C20.5685 19.8229 20.4399 20.023 20.2303 20.2326C20.0207 20.4422 19.8206 20.5732 19.5395 20.6804C19.3275 20.7614 19.0107 20.8615 18.4248 20.8877C17.7912 20.9162 17.603 20.9234 16 20.9234C14.397 20.9234 14.2088 20.9162 13.5752 20.8877C12.9893 20.8615 12.6725 20.7638 12.4605 20.6804C12.1794 20.5709 11.9794 20.4422 11.7698 20.2326C11.5601 20.023 11.4291 19.8229 11.322 19.5419C11.241 19.3299 11.1409 19.0131 11.1147 18.4272C11.0861 17.7936 11.079 17.6054 11.079 16.0024C11.079 14.3994 11.0861 14.2112 11.1147 13.5776C11.1409 12.9917 11.2386 12.6749 11.322 12.4629C11.4315 12.1818 11.5601 11.9817 11.7698 11.7721C11.9794 11.5625 12.1794 11.4315 12.4605 11.3243C12.6725 11.2434 12.9893 11.1433 13.5752 11.1171C14.2088 11.0861 14.3994 11.0814 16 11.0814Z" fill="white"/>
<path d="M16 12.9199C14.2993 12.9199 12.9178 14.299 12.9178 16.0021C12.9178 17.7052 14.297 19.0843 16 19.0843C17.7031 19.0843 19.0822 17.7052 19.0822 16.0021C19.0822 14.299 17.7031 12.9199 16 12.9199ZM16 18.0005C14.8948 18.0005 13.9992 17.1049 13.9992 15.9997C13.9992 14.8945 14.8948 13.9989 16 13.9989C17.1052 13.9989 18.0008 14.8945 18.0008 15.9997C18.0008 17.1049 17.1052 18.0005 16 18.0005Z" fill="#CB7849"/>
<path d="M19.2036 13.5158C19.6009 13.5158 19.923 13.1938 19.923 12.7965C19.923 12.3992 19.6009 12.0771 19.2036 12.0771C18.8064 12.0771 18.4843 12.3992 18.4843 12.7965C18.4843 13.1938 18.8064 13.5158 19.2036 13.5158Z" fill="#CB7849"/>
</g>
<defs>
<clipPath id="clip0_41_245">
<rect width="12" height="12" fill="white" transform="translate(10 10)"/>
</clipPath>
</defs>
</svg>
