<svg width="32" height="32" viewBox="0 0 32 32" fill="none" xmlns="http://www.w3.org/2000/svg">
<rect width="32" height="32" rx="16" fill="#CB7849"/>
<path d="M19.5385 12.4638C18.4975 11.4223 17.0775 10.8968 15.5865 11.0168C13.582 11.1778 11.825 12.5718 11.237 14.4948C10.817 15.8688 10.9935 17.3033 11.6775 18.4883L11.0295 20.6398C10.9675 20.8463 11.156 21.0408 11.3645 20.9853L13.6165 20.3818C14.346 20.7798 15.167 20.9893 16.003 20.9898H16.005C18.1025 20.9898 20.0405 19.7068 20.711 17.7193C21.364 15.7813 20.881 13.8078 19.5385 12.4638ZM18.449 17.7768C18.345 18.0683 17.8355 18.3493 17.6065 18.3698C17.3775 18.3908 17.163 18.4733 16.109 18.0578C14.8405 17.5578 14.0395 16.2573 13.9775 16.1743C13.915 16.0908 13.468 15.4978 13.468 14.8838C13.468 14.2698 13.7905 13.9678 13.905 13.8433C14.0195 13.7183 14.1545 13.6873 14.238 13.6873C14.321 13.6873 14.4045 13.6873 14.477 13.6903C14.566 13.6938 14.6645 13.6983 14.758 13.9058C14.869 14.1528 15.1115 14.7698 15.1425 14.8323C15.1735 14.8948 15.1945 14.9678 15.153 15.0508C15.1115 15.1338 15.0905 15.1858 15.0285 15.2588C14.966 15.3318 14.8975 15.4213 14.8415 15.4773C14.779 15.5393 14.714 15.6073 14.7865 15.7318C14.8595 15.8568 15.1095 16.2653 15.4805 16.5958C15.9575 17.0208 16.359 17.1523 16.484 17.2153C16.609 17.2778 16.6815 17.2673 16.7545 17.1838C16.8275 17.1008 17.0665 16.8198 17.1495 16.6948C17.2325 16.5698 17.316 16.5908 17.4305 16.6323C17.545 16.6738 18.1585 16.9758 18.283 17.0383C18.408 17.1008 18.491 17.1318 18.522 17.1838C18.553 17.2353 18.553 17.4853 18.449 17.7768Z" fill="white"/>
</svg>
